<svg width="32" height="32" viewBox="0 0 32 32" xmlns="http://www.w3.org/2000/svg">
  <defs>
    <linearGradient id="bgGradient" x1="0%" y1="0%" x2="100%" y2="100%">
      <stop offset="0%" style="stop-color:#6366F1;stop-opacity:1" />
      <stop offset="100%" style="stop-color:#8B5CF6;stop-opacity:1" />
    </linearGradient>
    <linearGradient id="pinGradient" x1="0%" y1="0%" x2="100%" y2="100%">
      <stop offset="0%" style="stop-color:#FFFFFF;stop-opacity:1" />
      <stop offset="100%" style="stop-color:#F1F5F9;stop-opacity:1" />
    </linearGradient>
    <linearGradient id="starGradient" x1="0%" y1="0%" x2="100%" y2="100%">
      <stop offset="0%" style="stop-color:#FBBF24;stop-opacity:1" />
      <stop offset="100%" style="stop-color:#F59E0B;stop-opacity:1" />
    </linearGradient>
  </defs>
  
  <!-- Background with gradient -->
  <rect width="32" height="32" rx="8" fill="url(#bgGradient)" />
  
  <!-- Shadow for map pin -->
  <path d="M16 7c-3.2 0-5.8 2.6-5.8 5.8 0 2.2 2.7 6.3 5.8 11.2 3.1-4.9 5.8-9 5.8-11.2C21.8 9.6 19.2 7 16 7z" 
        fill="rgba(0,0,0,0.1)" transform="translate(1,1)" />
  
  <!-- Map pin -->
  <path d="M16 6c-3.2 0-5.8 2.6-5.8 5.8 0 2.2 2.7 6.3 5.8 11.2 3.1-4.9 5.8-9 5.8-11.2C21.8 8.6 19.2 6 16 6z" 
        fill="url(#pinGradient)" stroke="rgba(255,255,255,0.3)" stroke-width="0.5" />
  
  <!-- Inner circle -->
  <circle cx="16" cy="11.8" r="2.2" fill="url(#starGradient)" />
  
  <!-- Star -->
  <path d="M16 10.3 l0.7 1.4 l1.4 0.2 l-1 1 l0.2 1.4 l-1.3-0.7 l-1.3 0.7 l0.2-1.4 l-1-1 l1.4-0.2 z" 
        fill="white" stroke="none" />
</svg> 